<?xml version="1.0" encoding="UTF-8"?>
<svg width="472px" height="152px" viewBox="0 0 472 152" version="1.1" xmlns="http://www.w3.org/2000/svg" xmlns:xlink="http://www.w3.org/1999/xlink">
    <!-- Generator: Sketch 49.1 (51147) - http://www.bohemiancoding.com/sketch -->
    <title>balances copy</title>
    <desc>Created with Sketch.</desc>
    <defs>
        <rect id="path-1" x="0" y="0" width="96" height="96" rx="3"></rect>
        <circle id="path-2" cx="16" cy="16" r="16"></circle>
        <rect id="path-4" x="0" y="0" width="24" height="16"></rect>
        <polygon id="path-6" points="14 8 28 18 26 19 12 9 -1.99999997 19 -3.99999997 18 10 8 -3.99999997 -2 -1.99999997 -3 12 7 26 -3 28 -2"></polygon>
        <path d="M13,7 L28,7 L28,9 L13,9 L13,18 L11,18 L11,9 L-4,9 L-4,7 L11,7 L11,-2 L13,-2 L13,7 Z" id="path-7"></path>
        <rect id="path-8" x="0" y="0" width="96" height="96" rx="3"></rect>
        <circle id="path-9" cx="16" cy="16" r="16"></circle>
        <rect id="path-11" x="0" y="0" width="48" height="32"></rect>
        <circle id="path-13" cx="16" cy="16" r="16"></circle>
        <rect id="path-15" x="0" y="0" width="38" height="26"></rect>
        <rect id="path-17" x="0" y="0" width="96" height="96" rx="3"></rect>
        <circle id="path-18" cx="16" cy="16" r="16"></circle>
        <rect id="path-20" x="0" y="0" width="48" height="32"></rect>
        <polygon id="path-22" points="26 16 50 32 48 34 24 18 -3.55271368e-15 34 -2 32 22 16 -3.55271368e-15 0 2 -2 24 14 48 -2 50 0"></polygon>
        <path d="M26,14 L48,14 L48,18 L26,18 L26,32 L22,32 L22,18 L0,18 L0,14 L22,14 L22,0 L26,0 L26,14 Z" id="path-23"></path>
    </defs>
    <g id="Prototype-v2" stroke="none" stroke-width="1" fill="none" fill-rule="evenodd">
        <g id="balances-copy">
            <g id="Group-12" transform="translate(0.000000, 26.000000)">
                <g id="shadow-copy-15">
                    <use fill="#2E4369" fill-rule="evenodd" xlink:href="#path-1"></use>
                    <rect stroke="#2E4369" stroke-width="1" x="0.5" y="0.5" width="95" height="95" rx="3"></rect>
                </g>
                <g id="AUD-Copy-2" transform="translate(32.000000, 16.000000)">
                    <mask id="mask-3" fill="white">
                        <use xlink:href="#path-2"></use>
                    </mask>
                    <g id="Mask"></g>
                    <g id="AUD" mask="url(#mask-3)">
                        <g transform="translate(-8.000000, 0.000000)">
                            <g>
                                <rect id="Rectangle-327" fill="#00207F" x="0" y="0" width="48" height="32"></rect>
                                <g id="Group">
                                    <mask id="mask-5" fill="white">
                                        <use xlink:href="#path-4"></use>
                                    </mask>
                                    <use id="Mask" fill="#00207F" xlink:href="#path-4"></use>
                                    <g id="Path-4" mask="url(#mask-5)" transform="translate(12.000000, 8.000000) scale(-1, 1) translate(-12.000000, -8.000000) ">
                                        <use fill="#D10D24" fill-rule="evenodd" xlink:href="#path-6"></use>
                                        <path stroke="#FFFFFF" stroke-width="0.5" d="M14.4301163,8 L28.4831931,18.037912 L25.9771739,19.2909215 L12,9.3072259 L-1.97717387,19.2909215 L-4.48319301,18.037912 L9.56988376,8 L-4.48319301,-2.03791198 L-1.97717387,-3.29092155 L12,6.6927741 L25.9771739,-3.29092155 L28.4831931,-2.03791198 L14.4301163,8 Z"></path>
                                    </g>
                                    <g id="Rectangle-325" mask="url(#mask-5)">
                                        <use fill="#D10D24" fill-rule="evenodd" xlink:href="#path-7"></use>
                                        <path stroke="#FFFFFF" stroke-width="0.5" d="M13.25,6.75 L28.25,6.75 L28.25,9.25 L13.25,9.25 L13.25,18.25 L10.75,18.25 L10.75,9.25 L-4.25,9.25 L-4.25,6.75 L10.75,6.75 L10.75,-2.25 L13.25,-2.25 L13.25,6.75 Z"></path>
                                    </g>
                                </g>
                                <path d="M36,25 L35.1322325,25.8019377 L35.2181685,24.6234898 L34.0501442,24.4450419 L35.0250721,23.7774791 L34.436337,22.7530204 L35.5661163,23.0990311 L36,22 L36.4338837,23.0990311 L37.563663,22.7530204 L36.9749279,23.7774791 L37.9498558,24.4450419 L36.7818315,24.6234898 L36.8677675,25.8019377 L36,25 Z M39,17.5 L38.4122147,17.809017 L38.5244717,17.1545085 L38.0489435,16.690983 L38.7061074,16.5954915 L39,16 L39.2938926,16.5954915 L39.9510565,16.690983 L39.4755283,17.1545085 L39.5877853,17.809017 L39,17.5 Z M42,13 L41.1322325,13.8019377 L41.2181685,12.6234898 L40.0501442,12.4450419 L41.0250721,11.7774791 L40.436337,10.7530204 L41.5661163,11.0990311 L42,10 L42.4338837,11.0990311 L43.563663,10.7530204 L42.9749279,11.7774791 L43.9498558,12.4450419 L42.7818315,12.6234898 L42.8677675,13.8019377 L42,13 Z M30,15 L29.1322325,15.8019377 L29.2181685,14.6234898 L28.0501442,14.4450419 L29.0250721,13.7774791 L28.436337,12.7530204 L29.5661163,13.0990311 L30,12 L30.4338837,13.0990311 L31.563663,12.7530204 L30.9749279,13.7774791 L31.9498558,14.4450419 L30.7818315,14.6234898 L30.8677675,15.8019377 L30,15 Z M36,7 L35.1322325,7.80193774 L35.2181685,6.6234898 L34.0501442,6.44504187 L35.0250721,5.77747907 L34.436337,4.7530204 L35.5661163,5.09903113 L36,4 L36.4338837,5.09903113 L37.563663,4.7530204 L36.9749279,5.77747907 L37.9498558,6.44504187 L36.7818315,6.6234898 L36.8677675,7.80193774 L36,7 Z M12,26 L10.264465,27.6038755 L10.436337,25.2469796 L8.10028835,24.8900837 L10.0501442,23.5549581 L8.87267407,21.5060408 L11.1322325,22.1980623 L12,20 L12.8677675,22.1980623 L15.1273259,21.5060408 L13.9498558,23.5549581 L15.8997116,24.8900837 L13.563663,25.2469796 L13.735535,27.6038755 L12,26 Z" id="Star-3" fill="#FFFFFF"></path>
                            </g>
                        </g>
                    </g>
                </g>
                <path d="M39.824,74 L38.96,71.552 L34.32,71.552 L33.472,74 L31.456,74 L35.696,62.64 L37.584,62.64 L41.84,74 L39.824,74 Z M34.912,69.888 L38.384,69.888 L36.656,64.96 L36.624,64.96 L34.912,69.888 Z M47.408,74.128 C46.0426598,74.128 44.9493374,73.7040042 44.128,72.856 C43.3066626,72.0079958 42.896,70.8320075 42.896,69.328 L42.896,62.64 L44.816,62.64 L44.816,69.184 C44.816,70.1120046 45.0479977,70.8639971 45.512,71.44 C45.9760023,72.0160029 46.607996,72.304 47.408,72.304 C48.1866706,72.304 48.8159976,72.0240028 49.296,71.464 C49.7760024,70.9039972 50.016,70.1440048 50.016,69.184 L50.016,62.64 L51.952,62.64 L51.952,69.328 C51.952,70.8106741 51.5466707,71.981329 50.736,72.84 C49.9253293,73.698671 48.816007,74.128 47.408,74.128 Z M54.56,74 L54.56,62.64 L58.176,62.64 C59.9573422,62.64 61.3866613,63.1653281 62.464,64.216 C63.5413387,65.2666719 64.08,66.6399915 64.08,68.336 C64.08,70.0320085 63.5546719,71.3999948 62.504,72.44 C61.4533281,73.4800052 60.0266757,74 58.224,74 L54.56,74 Z M56.496,72.272 L58.112,72.272 C59.2960059,72.272 60.2533297,71.901337 60.984,71.16 C61.7146703,70.418663 62.08,69.477339 62.08,68.336 C62.08,67.1839942 61.7200036,66.2346704 61,65.488 C60.2799964,64.7413296 59.349339,64.368 58.208,64.368 L56.496,64.368 L56.496,72.272 Z" id="AUD" fill="#FFFFFF"></path>
            </g>
            <g id="Group-12-Copy" transform="translate(376.000000, 26.000000)">
                <g id="shadow-copy-15">
                    <use fill="#2E4369" fill-rule="evenodd" xlink:href="#path-8"></use>
                    <rect stroke="#2E4369" stroke-width="1" x="0.5" y="0.5" width="95" height="95" rx="3"></rect>
                </g>
                <g id="USD" transform="translate(32.000000, 16.000000)">
                    <mask id="mask-10" fill="white">
                        <use xlink:href="#path-9"></use>
                    </mask>
                    <g id="Mask"></g>
                    <g mask="url(#mask-10)">
                        <g transform="translate(-8.000000, 0.000000)">
                            <g>
                                <mask id="mask-12" fill="white">
                                    <use xlink:href="#path-11"></use>
                                </mask>
                                <use id="Rectangle-327" fill="#C1012B" xlink:href="#path-11"></use>
                                <rect id="Rectangle-99" fill="#00256A" mask="url(#mask-12)" x="0" y="0" width="24" height="18"></rect>
                                <path d="M24,2 L48,2 L48,4 L24,4 L24,2 Z M24,6 L48,6 L48,8 L24,8 L24,6 Z M24,10 L48,10 L48,12 L24,12 L24,10 Z M24,14 L48,14 L48,16 L24,16 L24,14 Z M0,18 L48,18 L48,20 L0,20 L0,18 Z M0,22 L48,22 L48,24 L0,24 L0,22 Z M0,26 L48,26 L48,28 L0,28 L0,26 Z M0,30 L48,30 L48,32 L0,32 L0,30 Z" id="Rectangle-326" fill="#FFFFFF" mask="url(#mask-12)"></path>
                                <path d="M3,4 C2.44771525,4 2,3.55228475 2,3 C2,2.44771525 2.44771525,2 3,2 C3.55228475,2 4,2.44771525 4,3 C4,3.55228475 3.55228475,4 3,4 Z M7,4 C6.44771525,4 6,3.55228475 6,3 C6,2.44771525 6.44771525,2 7,2 C7.55228475,2 8,2.44771525 8,3 C8,3.55228475 7.55228475,4 7,4 Z M11,4 C10.4477153,4 10,3.55228475 10,3 C10,2.44771525 10.4477153,2 11,2 C11.5522847,2 12,2.44771525 12,3 C12,3.55228475 11.5522847,4 11,4 Z M15,4 C14.4477153,4 14,3.55228475 14,3 C14,2.44771525 14.4477153,2 15,2 C15.5522847,2 16,2.44771525 16,3 C16,3.55228475 15.5522847,4 15,4 Z M19,4 C18.4477153,4 18,3.55228475 18,3 C18,2.44771525 18.4477153,2 19,2 C19.5522847,2 20,2.44771525 20,3 C20,3.55228475 19.5522847,4 19,4 Z M17,8 C16.4477153,8 16,7.55228475 16,7 C16,6.44771525 16.4477153,6 17,6 C17.5522847,6 18,6.44771525 18,7 C18,7.55228475 17.5522847,8 17,8 Z M17,16 C16.4477153,16 16,15.5522847 16,15 C16,14.4477153 16.4477153,14 17,14 C17.5522847,14 18,14.4477153 18,15 C18,15.5522847 17.5522847,16 17,16 Z M13,8 C12.4477153,8 12,7.55228475 12,7 C12,6.44771525 12.4477153,6 13,6 C13.5522847,6 14,6.44771525 14,7 C14,7.55228475 13.5522847,8 13,8 Z M13,16 C12.4477153,16 12,15.5522847 12,15 C12,14.4477153 12.4477153,14 13,14 C13.5522847,14 14,14.4477153 14,15 C14,15.5522847 13.5522847,16 13,16 Z M21,8 C20.4477153,8 20,7.55228475 20,7 C20,6.44771525 20.4477153,6 21,6 C21.5522847,6 22,6.44771525 22,7 C22,7.55228475 21.5522847,8 21,8 Z M21,16 C20.4477153,16 20,15.5522847 20,15 C20,14.4477153 20.4477153,14 21,14 C21.5522847,14 22,14.4477153 22,15 C22,15.5522847 21.5522847,16 21,16 Z M9,8 C8.44771525,8 8,7.55228475 8,7 C8,6.44771525 8.44771525,6 9,6 C9.55228475,6 10,6.44771525 10,7 C10,7.55228475 9.55228475,8 9,8 Z M9,16 C8.44771525,16 8,15.5522847 8,15 C8,14.4477153 8.44771525,14 9,14 C9.55228475,14 10,14.4477153 10,15 C10,15.5522847 9.55228475,16 9,16 Z M5,8 C4.44771525,8 4,7.55228475 4,7 C4,6.44771525 4.44771525,6 5,6 C5.55228475,6 6,6.44771525 6,7 C6,7.55228475 5.55228475,8 5,8 Z M5,16 C4.44771525,16 4,15.5522847 4,15 C4,14.4477153 4.44771525,14 5,14 C5.55228475,14 6,14.4477153 6,15 C6,15.5522847 5.55228475,16 5,16 Z M3,12 C2.44771525,12 2,11.5522847 2,11 C2,10.4477153 2.44771525,10 3,10 C3.55228475,10 4,10.4477153 4,11 C4,11.5522847 3.55228475,12 3,12 Z M7,12 C6.44771525,12 6,11.5522847 6,11 C6,10.4477153 6.44771525,10 7,10 C7.55228475,10 8,10.4477153 8,11 C8,11.5522847 7.55228475,12 7,12 Z M11,12 C10.4477153,12 10,11.5522847 10,11 C10,10.4477153 10.4477153,10 11,10 C11.5522847,10 12,10.4477153 12,11 C12,11.5522847 11.5522847,12 11,12 Z M15,12 C14.4477153,12 14,11.5522847 14,11 C14,10.4477153 14.4477153,10 15,10 C15.5522847,10 16,10.4477153 16,11 C16,11.5522847 15.5522847,12 15,12 Z M19,12 C18.4477153,12 18,11.5522847 18,11 C18,10.4477153 18.4477153,10 19,10 C19.5522847,10 20,10.4477153 20,11 C20,11.5522847 19.5522847,12 19,12 Z" id="Oval-21" fill="#FFFFFF" mask="url(#mask-12)"></path>
                            </g>
                        </g>
                    </g>
                </g>
                <path d="M37.876,74.128 C36.5106598,74.128 35.4173374,73.7040042 34.596,72.856 C33.7746626,72.0079958 33.364,70.8320075 33.364,69.328 L33.364,62.64 L35.284,62.64 L35.284,69.184 C35.284,70.1120046 35.5159977,70.8639971 35.98,71.44 C36.4440023,72.0160029 37.075996,72.304 37.876,72.304 C38.6546706,72.304 39.2839976,72.0240028 39.764,71.464 C40.2440024,70.9039972 40.484,70.1440048 40.484,69.184 L40.484,62.64 L42.42,62.64 L42.42,69.328 C42.42,70.8106741 42.0146707,71.981329 41.204,72.84 C40.3933293,73.698671 39.284007,74.128 37.876,74.128 Z M48.42,74.128 C46.8306587,74.128 45.4600058,73.5306726 44.308,72.336 L45.524,70.848 C45.9186686,71.3280024 46.3746641,71.6959987 46.892,71.952 C47.4093359,72.2080013 47.9239974,72.336 48.436,72.336 C49.044003,72.336 49.510665,72.2133346 49.836,71.968 C50.161335,71.7226654 50.324,71.3866688 50.324,70.96 C50.324,70.501331 50.1640016,70.1546678 49.844,69.92 C49.5239984,69.6853322 48.9533374,69.4240014 48.132,69.136 C47.6093307,68.9546658 47.1800017,68.7813342 46.844,68.616 C46.5079983,68.4506658 46.1560018,68.234668 45.788,67.968 C45.4199982,67.701332 45.1453342,67.3786686 44.964,67 C44.7826658,66.6213314 44.692,66.1813358 44.692,65.68 C44.692,64.7946622 45.0439965,64.0453364 45.748,63.432 C46.4520035,62.8186636 47.299995,62.512 48.292,62.512 C49.6040066,62.5013333 50.8573274,62.9653286 52.052,63.904 L50.9,65.424 C49.9613286,64.6453294 49.092004,64.256 48.292,64.256 C47.833331,64.256 47.4546682,64.3733322 47.156,64.608 C46.8573318,64.8426678 46.7026667,65.1679979 46.692,65.584 C46.692,65.7866677 46.729333,65.9599993 46.804,66.104 C46.878667,66.2480007 47.0306655,66.3893326 47.26,66.528 C47.4893345,66.6666674 47.6973324,66.7759996 47.884,66.856 C48.0706676,66.9360004 48.3826645,67.0613325 48.82,67.232 C49.9933392,67.690669 50.7666648,68.0479987 51.14,68.304 C51.940004,68.8693362 52.34,69.6746614 52.34,70.72 C52.34,71.8080054 51.9426706,72.647997 51.148,73.24 C50.3533294,73.832003 49.4440051,74.128 48.42,74.128 Z M54.484,74 L54.484,62.64 L58.1,62.64 C59.8813422,62.64 61.3106613,63.1653281 62.388,64.216 C63.4653387,65.2666719 64.004,66.6399915 64.004,68.336 C64.004,70.0320085 63.4786719,71.3999948 62.428,72.44 C61.3773281,73.4800052 59.9506757,74 58.148,74 L54.484,74 Z M56.42,72.272 L58.036,72.272 C59.2200059,72.272 60.1773297,71.901337 60.908,71.16 C61.6386703,70.418663 62.004,69.477339 62.004,68.336 C62.004,67.1839942 61.6440036,66.2346704 60.924,65.488 C60.2039964,64.7413296 59.273339,64.368 58.132,64.368 L56.42,64.368 L56.42,72.272 Z" id="USD" fill="#FFFFFF"></path>
            </g>
            <g id="Group-5" transform="translate(104.000000, 0.000000)">
                <rect id="shadow-copy-18" fill="#FFFFFF" x="0" y="0" width="160" height="152" rx="3"></rect>
                <polygon id="Rectangle-7-Copy-6" fill="#E2E6E8" points="54.1737529 104 144 104 140.826247 112 51 112"></polygon>
                <polygon id="Rectangle-7-Copy-7" fill="#E2E6E8" points="25.1775201 120 137 120 133.82248 128 22 128"></polygon>
                <polygon id="Rectangle-7-Copy-8" fill="#E2E6E8" points="19.1419619 104 45 104 41.8580381 112 16 112"></polygon>
                <path d="M3,0 L157,0 C158.656854,-3.04359188e-16 160,1.34314575 160,3 L160,56 L0,56 L0,3 C-2.02906125e-16,1.34314575 1.34314575,3.04359188e-16 3,0 Z" id="shadow-copy-19" fill="#2E4369"></path>
                <path d="M60.32,33 L60.32,31.144 L55.52,31.144 L55.52,29.88 L60.624,22.008 L62.176,22.008 L62.176,29.496 L63.696,29.496 L63.696,31.144 L62.176,31.144 L62.176,33 L60.32,33 Z M57.68,29.544 L60.384,29.544 L60.384,25.144 L57.68,29.544 Z M69.232,33.128 C67.9626603,33.128 66.9413372,32.6293383 66.168,31.632 C65.3946628,30.6346617 65.008,29.2613421 65.008,27.512 C65.008,25.8266582 65.3866629,24.4693385 66.144,23.44 C66.9013371,22.4106615 67.9306602,21.896 69.232,21.896 C70.5013397,21.896 71.5226628,22.391995 72.296,23.384 C73.0693372,24.376005 73.456,25.7519912 73.456,27.512 C73.456,29.1973418 73.0800038,30.5546615 72.328,31.584 C71.5759962,32.6133385 70.5440066,33.128 69.232,33.128 Z M69.232,31.4 C69.9680037,31.4 70.5413313,31.0586701 70.952,30.376 C71.3626687,29.6933299 71.568,28.7386728 71.568,27.512 C71.568,26.2853272 71.3600021,25.3280034 70.944,24.64 C70.5279979,23.9519966 69.957337,23.608 69.232,23.608 C68.506663,23.608 67.9360021,23.9519966 67.52,24.64 C67.1039979,25.3280034 66.896,26.2853272 66.896,27.512 C66.896,28.7173394 67.1066646,29.6666632 67.528,30.36 C67.9493354,31.0533368 68.5173298,31.4 69.232,31.4 Z M79.344,33.128 C78.0746603,33.128 77.0533372,32.6293383 76.28,31.632 C75.5066628,30.6346617 75.12,29.2613421 75.12,27.512 C75.12,25.8266582 75.4986629,24.4693385 76.256,23.44 C77.0133371,22.4106615 78.0426602,21.896 79.344,21.896 C80.6133397,21.896 81.6346628,22.391995 82.408,23.384 C83.1813372,24.376005 83.568,25.7519912 83.568,27.512 C83.568,29.1973418 83.1920038,30.5546615 82.44,31.584 C81.6879962,32.6133385 80.6560066,33.128 79.344,33.128 Z M79.344,31.4 C80.0800037,31.4 80.6533313,31.0586701 81.064,30.376 C81.4746687,29.6933299 81.68,28.7386728 81.68,27.512 C81.68,26.2853272 81.4720021,25.3280034 81.056,24.64 C80.6399979,23.9519966 80.069337,23.608 79.344,23.608 C78.618663,23.608 78.0480021,23.9519966 77.632,24.64 C77.2159979,25.3280034 77.008,26.2853272 77.008,27.512 C77.008,28.7173394 77.2186646,29.6666632 77.64,30.36 C78.0613354,31.0533368 78.6293298,31.4 79.344,31.4 Z M86.56,33.128 C86.218665,33.128 85.9306678,33.0133345 85.696,32.784 C85.4613322,32.5546655 85.344,32.2746683 85.344,31.944 C85.344,31.6133317 85.4639988,31.3306678 85.704,31.096 C85.9440012,30.8613322 86.2293317,30.744 86.56,30.744 C86.8906683,30.744 87.1733322,30.8613322 87.408,31.096 C87.6426678,31.3306678 87.76,31.6133317 87.76,31.944 C87.76,32.2746683 87.6426678,32.5546655 87.408,32.784 C87.1733322,33.0133345 86.8906683,33.128 86.56,33.128 Z M93.776,33.128 C92.5066603,33.128 91.4853372,32.6293383 90.712,31.632 C89.9386628,30.6346617 89.552,29.2613421 89.552,27.512 C89.552,25.8266582 89.9306629,24.4693385 90.688,23.44 C91.4453371,22.4106615 92.4746602,21.896 93.776,21.896 C95.0453397,21.896 96.0666628,22.391995 96.84,23.384 C97.6133372,24.376005 98,25.7519912 98,27.512 C98,29.1973418 97.6240038,30.5546615 96.872,31.584 C96.1199962,32.6133385 95.0880066,33.128 93.776,33.128 Z M93.776,31.4 C94.5120037,31.4 95.0853313,31.0586701 95.496,30.376 C95.9066687,29.6933299 96.112,28.7386728 96.112,27.512 C96.112,26.2853272 95.9040021,25.3280034 95.488,24.64 C95.0719979,23.9519966 94.501337,23.608 93.776,23.608 C93.050663,23.608 92.4800021,23.9519966 92.064,24.64 C91.6479979,25.3280034 91.44,26.2853272 91.44,27.512 C91.44,28.7173394 91.6506646,29.6666632 92.072,30.36 C92.4933354,31.0533368 93.0613298,31.4 93.776,31.4 Z M103.888,33.128 C102.61866,33.128 101.597337,32.6293383 100.824,31.632 C100.050663,30.6346617 99.664,29.2613421 99.664,27.512 C99.664,25.8266582 100.042663,24.4693385 100.8,23.44 C101.557337,22.4106615 102.58666,21.896 103.888,21.896 C105.15734,21.896 106.178663,22.391995 106.952,23.384 C107.725337,24.376005 108.112,25.7519912 108.112,27.512 C108.112,29.1973418 107.736004,30.5546615 106.984,31.584 C106.231996,32.6133385 105.200007,33.128 103.888,33.128 Z M103.888,31.4 C104.624004,31.4 105.197331,31.0586701 105.608,30.376 C106.018669,29.6933299 106.224,28.7386728 106.224,27.512 C106.224,26.2853272 106.016002,25.3280034 105.6,24.64 C105.183998,23.9519966 104.613337,23.608 103.888,23.608 C103.162663,23.608 102.592002,23.9519966 102.176,24.64 C101.759998,25.3280034 101.552,26.2853272 101.552,27.512 C101.552,28.7173394 101.762665,29.6666632 102.184,30.36 C102.605335,31.0533368 103.17333,31.4 103.888,31.4 Z M114.624,33 L114.624,21.64 L121.776,21.64 L121.776,23.368 L116.56,23.368 L116.56,26.504 L120.768,26.504 L120.768,28.232 L116.56,28.232 L116.56,31.272 L122.112,31.272 L122.112,33 L114.624,33 Z M128.688,33.128 C127.32266,33.128 126.229337,32.7040042 125.408,31.856 C124.586663,31.0079958 124.176,29.8320075 124.176,28.328 L124.176,21.64 L126.096,21.64 L126.096,28.184 C126.096,29.1120046 126.327998,29.8639971 126.792,30.44 C127.256002,31.0160029 127.887996,31.304 128.688,31.304 C129.466671,31.304 130.095998,31.0240028 130.576,30.464 C131.056002,29.9039972 131.296,29.1440048 131.296,28.184 L131.296,21.64 L133.232,21.64 L133.232,28.328 C133.232,29.8106741 132.826671,30.981329 132.016,31.84 C131.205329,32.698671 130.096007,33.128 128.688,33.128 Z M144.336,33 L142.016,33 L139.296,28.952 L137.776,28.952 L137.776,33 L135.84,33 L135.84,21.64 L140.032,21.64 C141.33334,21.64 142.306663,21.9759966 142.952,22.648 C143.597337,23.3200034 143.92,24.2106611 143.92,25.32 C143.92,27.1333424 143.088008,28.2746643 141.424,28.744 L141.424,28.792 L144.336,33 Z M137.776,23.368 L137.776,27.208 L139.616,27.208 C140.36267,27.208 140.933331,27.0346684 141.328,26.688 C141.722669,26.3413316 141.92,25.8746696 141.92,25.288 C141.92,24.679997 141.730669,24.2080017 141.352,23.872 C140.973331,23.5359983 140.437337,23.368 139.744,23.368 L137.776,23.368 Z" id="400.00-EUR" fill="#FFFFFF"></path>
                <g id="EUR-Copy-7" transform="translate(15.000000, 12.000000)">
                    <mask id="mask-14" fill="white">
                        <use xlink:href="#path-13"></use>
                    </mask>
                    <use id="Mask" fill="#0053A7" xlink:href="#path-13"></use>
                    <g id="EUR" mask="url(#mask-14)">
                        <g transform="translate(-3.000000, 3.000000)">
                            <g>
                                <mask id="mask-16" fill="white">
                                    <use xlink:href="#path-15"></use>
                                </mask>
                                <use id="Rectangle-327" fill="#0053A7" xlink:href="#path-15"></use>
                                <path d="M12.6666667,14.625 L14.25,13 L12.6666667,11.375 L11.0833333,13 L12.6666667,14.625 Z M14.25,9.75 L15.8333333,8.125 L14.25,6.5 L12.6666667,8.125 L14.25,9.75 Z M14.25,19.5 L15.8333333,17.875 L14.25,16.25 L12.6666667,17.875 L14.25,19.5 Z M23.75,19.5 L25.3333333,17.875 L23.75,16.25 L22.1666667,17.875 L23.75,19.5 Z M23.75,9.75 L25.3333333,8.125 L23.75,6.5 L22.1666667,8.125 L23.75,9.75 Z M25.3333333,14.625 L26.9166667,13 L25.3333333,11.375 L23.75,13 L25.3333333,14.625 Z M19,21.125 L20.5833333,19.5 L19,17.875 L17.4166667,19.5 L19,21.125 Z M19,8.125 L20.5833333,6.5 L19,4.875 L17.4166667,6.5 L19,8.125 Z" id="Oval-106" fill="#FFF400" mask="url(#mask-16)"></path>
                            </g>
                        </g>
                    </g>
                </g>
                <path d="M32.116,88 L32.116,80.44 L29.56,80.44 L29.56,79.48 L35.728,79.48 L35.728,80.44 L33.16,80.44 L33.16,88 L32.116,88 Z M39.928,82.084 C40.0480006,82.084 40.1279998,82.088 40.168,82.096 L40.168,83.176 C39.9919991,83.1599999 39.8640004,83.152 39.784,83.152 C39.2399973,83.152 38.8080016,83.3399981 38.488,83.716 C38.1679984,84.0920019 38.008,84.579997 38.008,85.18 L38.008,88 L37.036,88 L37.036,82.156 L38.008,82.156 L38.008,83.188 L38.02,83.188 C38.4760023,82.4519963 39.1119959,82.084 39.928,82.084 Z M43.504,82.084 C44.9760074,82.084 45.712,82.8999918 45.712,84.532 L45.712,88 L44.8,88 L44.764,87.292 L44.74,87.292 C44.2359975,87.8120026 43.6120037,88.072 42.868,88.072 C42.2279968,88.072 41.7400017,87.9060017 41.404,87.574 C41.0679983,87.2419983 40.9,86.8120026 40.9,86.284 C40.9,85.7159972 41.0879981,85.2720016 41.464,84.952 C41.8400019,84.6319984 42.3999963,84.468 43.144,84.46 L44.74,84.46 C44.7079998,83.4759951 44.2720042,82.984 43.432,82.984 C42.839997,82.984 42.2760027,83.1279986 41.74,83.416 L41.356,82.636 C41.9800031,82.2679982 42.695996,82.084 43.504,82.084 Z M43.06,87.184 C43.5320024,87.184 43.9299984,87.0620012 44.254,86.818 C44.5780016,86.5739988 44.74,86.3120014 44.74,86.032 L44.74,85.276 L43.24,85.288 C42.3359955,85.288 41.884,85.6079968 41.884,86.248 C41.884,86.5200014 41.983999,86.7439991 42.184,86.92 C42.384001,87.0960009 42.6759981,87.184 43.06,87.184 Z M50.512,82.084 C51.1600032,82.084 51.6719981,82.2899979 52.048,82.702 C52.4240019,83.1140021 52.612,83.723996 52.612,84.532 L52.612,88 L51.64,88 L51.64,84.808 C51.64,83.5919939 51.1640048,82.984 50.212,82.984 C49.6519972,82.984 49.2060017,83.1699981 48.874,83.542 C48.5419983,83.9140019 48.376,84.4279967 48.376,85.084 L48.376,88 L47.404,88 L47.404,82.156 L48.376,82.156 L48.376,83.176 L48.388,83.176 C48.9000026,82.4479964 49.6079955,82.084 50.512,82.084 Z M56.152,88.072 C55.2479955,88.072 54.4840031,87.7920028 53.86,87.232 L54.364,86.5 C54.8680025,86.9640023 55.4639966,87.196 56.152,87.196 C56.4880017,87.196 56.755999,87.1200008 56.956,86.968 C57.156001,86.8159992 57.256,86.6320011 57.256,86.416 C57.256,86.1919989 57.158001,86.0220006 56.962,85.906 C56.765999,85.7899994 56.4240024,85.6480008 55.936,85.48 C55.9039998,85.472 55.8800001,85.464 55.864,85.456 C55.2959972,85.255999 54.8620015,85.0280013 54.562,84.772 C54.2619985,84.5159987 54.112,84.1440024 54.112,83.656 C54.112,83.2079978 54.2939982,82.8340015 54.658,82.534 C55.0220018,82.2339985 55.4839972,82.084 56.044,82.084 C56.7880037,82.084 57.455997,82.3239976 58.048,82.804 L57.544,83.572 C57.0799977,83.171998 56.5640028,82.972 55.996,82.972 C55.7639988,82.972 55.5560009,83.0359994 55.372,83.164 C55.1879991,83.2920006 55.096,83.455999 55.096,83.656 C55.096,83.864001 55.1859991,84.0319994 55.366,84.16 C55.5460009,84.2880006 55.8239981,84.4239993 56.2,84.568 C56.2640003,84.5920001 56.3819991,84.6359997 56.554,84.7 C56.7260009,84.7640003 56.8399997,84.8079999 56.896,84.832 C56.9520003,84.8560001 57.0479993,84.8979997 57.184,84.958 C57.3200007,85.0180003 57.4119998,85.0619999 57.46,85.09 C57.5080002,85.1180001 57.5819995,85.1639997 57.682,85.228 C57.7820005,85.2920003 57.8499998,85.3479998 57.886,85.396 L58.03,85.588 C58.0900003,85.6680004 58.1319999,85.7459996 58.156,85.822 C58.1800001,85.8980004 58.1999999,85.9859995 58.216,86.086 C58.2320001,86.1860005 58.24,86.2919994 58.24,86.404 C58.24,86.8840024 58.0600018,87.2819984 57.7,87.598 C57.3399982,87.9140016 56.8240034,88.072 56.152,88.072 Z M59.908,88 L59.908,82.996 L59.188,82.996 L59.188,82.156 L59.908,82.156 L59.908,80.98 C59.908,80.3559969 60.0499986,79.8840016 60.334,79.564 C60.6180014,79.2439984 61.0199974,79.084 61.54,79.084 C62.0360025,79.084 62.4919979,79.2079988 62.908,79.456 L62.692,80.296 C62.3079981,80.095999 61.9680015,79.996 61.672,79.996 C61.1359973,79.996 60.868,80.3519964 60.868,81.064 L60.868,82.156 L62.524,82.156 L62.524,82.996 L60.868,82.996 L60.868,88 L59.908,88 Z M68.824,84.988 C68.824,85.0520003 68.82,85.1359995 68.812,85.24 L68.8,85.384 L64.3,85.384 C64.3640003,85.9280027 64.5739982,86.3639984 64.93,86.692 C65.2860018,87.0200016 65.7279974,87.184 66.256,87.184 C66.9360034,87.184 67.4839979,86.9200026 67.9,86.392 L68.584,86.98 C68.0159972,87.7080036 67.228005,88.072 66.22,88.072 C65.3799958,88.072 64.6860027,87.7940028 64.138,87.238 C63.5899973,86.6819972 63.316,85.9640044 63.316,85.084 C63.316,84.2119956 63.5819973,83.4940028 64.114,82.93 C64.6460027,82.3659972 65.311996,82.084 66.112,82.084 C66.920004,82.084 67.5739975,82.3559973 68.074,82.9 C68.5740025,83.4440027 68.824,84.1399958 68.824,84.988 Z M66.16,82.984 C65.6959977,82.984 65.2980017,83.1259986 64.966,83.41 C64.6339983,83.6940014 64.4240004,84.0839975 64.336,84.58 L67.864,84.58 C67.7839996,84.0919976 67.5960015,83.7040014 67.3,83.416 C67.0039985,83.1279986 66.6240023,82.984 66.16,82.984 Z M73.192,82.084 C73.3120006,82.084 73.3919998,82.088 73.432,82.096 L73.432,83.176 C73.2559991,83.1599999 73.1280004,83.152 73.048,83.152 C72.5039973,83.152 72.0720016,83.3399981 71.752,83.716 C71.4319984,84.0920019 71.272,84.579997 71.272,85.18 L71.272,88 L70.3,88 L70.3,82.156 L71.272,82.156 L71.272,83.188 L71.284,83.188 C71.7400023,82.4519963 72.3759959,82.084 73.192,82.084 Z M84.256,79.48 L85.372,79.48 L82.648,88 L81.64,88 L79.672,81.016 L79.66,81.016 L77.656,88 L76.648,88 L73.924,79.48 L75.04,79.48 L77.14,86.284 L77.164,86.284 L79.084,79.48 L80.224,79.48 L82.144,86.308 L82.156,86.308 L84.256,79.48 Z M86.92,81.076 C86.719999,81.076 86.5540007,81.0100007 86.422,80.878 C86.2899993,80.7459993 86.224,80.584001 86.224,80.392 C86.224,80.199999 86.2899993,80.0380007 86.422,79.906 C86.5540007,79.7739993 86.719999,79.708 86.92,79.708 C87.112001,79.708 87.2759993,79.7759993 87.412,79.912 C87.5480007,80.0480007 87.616,80.2079991 87.616,80.392 C87.616,80.584001 87.5480007,80.7459993 87.412,80.878 C87.2759993,81.0100007 87.112001,81.076 86.92,81.076 Z M86.428,88 L86.428,82.156 L87.4,82.156 L87.4,88 L86.428,88 Z M91.132,88.072 C90.2279955,88.072 89.4640031,87.7920028 88.84,87.232 L89.344,86.5 C89.8480025,86.9640023 90.4439966,87.196 91.132,87.196 C91.4680017,87.196 91.735999,87.1200008 91.936,86.968 C92.136001,86.8159992 92.236,86.6320011 92.236,86.416 C92.236,86.1919989 92.138001,86.0220006 91.942,85.906 C91.745999,85.7899994 91.4040024,85.6480008 90.916,85.48 C90.8839998,85.472 90.8600001,85.464 90.844,85.456 C90.2759972,85.255999 89.8420015,85.0280013 89.542,84.772 C89.2419985,84.5159987 89.092,84.1440024 89.092,83.656 C89.092,83.2079978 89.2739982,82.8340015 89.638,82.534 C90.0020018,82.2339985 90.4639972,82.084 91.024,82.084 C91.7680037,82.084 92.435997,82.3239976 93.028,82.804 L92.524,83.572 C92.0599977,83.171998 91.5440028,82.972 90.976,82.972 C90.7439988,82.972 90.5360009,83.0359994 90.352,83.164 C90.1679991,83.2920006 90.076,83.455999 90.076,83.656 C90.076,83.864001 90.1659991,84.0319994 90.346,84.16 C90.5260009,84.2880006 90.8039981,84.4239993 91.18,84.568 C91.2440003,84.5920001 91.3619991,84.6359997 91.534,84.7 C91.7060009,84.7640003 91.8199997,84.8079999 91.876,84.832 C91.9320003,84.8560001 92.0279993,84.8979997 92.164,84.958 C92.3000007,85.0180003 92.3919998,85.0619999 92.44,85.09 C92.4880002,85.1180001 92.5619995,85.1639997 92.662,85.228 C92.7620005,85.2920003 92.8299998,85.3479998 92.866,85.396 L93.01,85.588 C93.0700003,85.6680004 93.1119999,85.7459996 93.136,85.822 C93.1600001,85.8980004 93.1799999,85.9859995 93.196,86.086 C93.2120001,86.1860005 93.22,86.2919994 93.22,86.404 C93.22,86.8840024 93.0400018,87.2819984 92.68,87.598 C92.3199982,87.9140016 91.8040034,88.072 91.132,88.072 Z M99.784,84.988 C99.784,85.0520003 99.78,85.1359995 99.772,85.24 L99.76,85.384 L95.26,85.384 C95.3240003,85.9280027 95.5339982,86.3639984 95.89,86.692 C96.2460018,87.0200016 96.6879974,87.184 97.216,87.184 C97.8960034,87.184 98.4439979,86.9200026 98.86,86.392 L99.544,86.98 C98.9759972,87.7080036 98.188005,88.072 97.18,88.072 C96.3399958,88.072 95.6460027,87.7940028 95.098,87.238 C94.5499973,86.6819972 94.276,85.9640044 94.276,85.084 C94.276,84.2119956 94.5419973,83.4940028 95.074,82.93 C95.6060027,82.3659972 96.271996,82.084 97.072,82.084 C97.880004,82.084 98.5339975,82.3559973 99.034,82.9 C99.5340025,83.4440027 99.784,84.1399958 99.784,84.988 Z M97.12,82.984 C96.6559977,82.984 96.2580017,83.1259986 95.926,83.41 C95.5939983,83.6940014 95.3840004,84.0839975 95.296,84.58 L98.824,84.58 C98.7439996,84.0919976 98.5560015,83.7040014 98.26,83.416 C97.9639985,83.1279986 97.5840023,82.984 97.12,82.984 Z M104.776,88 L104.776,79.48 L105.832,79.48 L105.832,88 L104.776,88 Z M112.24,83.524 C112.760003,83.6360006 113.183998,83.8759982 113.512,84.244 C113.840002,84.6120018 114.004,85.095997 114.004,85.696 C114.004,86.3920035 113.764002,86.9499979 113.284,87.37 C112.803998,87.7900021 112.096005,88 111.16,88 L108.052,88 L108.052,79.48 L110.836,79.48 C111.700004,79.48 112.373998,79.6499983 112.858,79.99 C113.342002,80.3300017 113.584,80.8519965 113.584,81.556 C113.584,81.9880022 113.470001,82.3819982 113.242,82.738 C113.013999,83.0940018 112.680002,83.3479992 112.24,83.5 L112.24,83.524 Z M109.096,80.44 L109.096,83.14 L110.824,83.14 C111.288002,83.14 111.685998,83.0280011 112.018,82.804 C112.350002,82.5799989 112.516,82.2320024 112.516,81.76 C112.516,80.8799956 111.884006,80.44 110.62,80.44 L109.096,80.44 Z M110.872,87.04 C111.496003,87.04 111.991998,86.9180012 112.36,86.674 C112.728002,86.4299988 112.912,86.0720024 112.912,85.6 C112.912,85.1199976 112.740002,84.7460013 112.396,84.478 C112.051998,84.2099987 111.560003,84.076 110.92,84.076 L109.096,84.076 L109.096,87.04 L110.872,87.04 Z M121.312,88 L120.556,85.924 L116.752,85.924 L115.996,88 L114.892,88 L118.12,79.48 L119.164,79.48 L122.416,88 L121.312,88 Z M117.088,85.012 L120.22,85.012 L118.66,80.752 L118.636,80.752 L117.088,85.012 Z M129.688,79.48 L130.732,79.48 L130.732,88 L129.664,88 L124.888,81.28 L124.864,81.28 L124.864,88 L123.82,88 L123.82,79.48 L124.852,79.48 L129.664,86.272 L129.688,86.272 L129.688,79.48 Z" id="TransferWise-IBAN" fill="#37517E"></path>
            </g>
            <g id="Group-5-Copy" transform="translate(272.000000, 26.000000)">
                <g id="shadow-copy-19">
                    <use fill="#2E4369" fill-rule="evenodd" xlink:href="#path-17"></use>
                    <rect stroke="#2E4369" stroke-width="1" x="0.5" y="0.5" width="95" height="95" rx="3"></rect>
                </g>
                <g id="GBP" transform="translate(32.000000, 16.000000)">
                    <mask id="mask-19" fill="white">
                        <use xlink:href="#path-18"></use>
                    </mask>
                    <g id="Mask"></g>
                    <g mask="url(#mask-19)">
                        <g transform="translate(-8.000000, 0.000000)">
                            <g>
                                <g id="Path-4-+-Rectangle-325-Mask">
                                    <mask id="mask-21" fill="white">
                                        <use xlink:href="#path-20"></use>
                                    </mask>
                                    <use id="Mask" fill="#00207F" xlink:href="#path-20"></use>
                                    <g id="Path-4" mask="url(#mask-21)" transform="translate(24.000000, 16.000000) scale(-1, 1) translate(-24.000000, -16.000000) ">
                                        <use fill="#DF321D" fill-rule="evenodd" xlink:href="#path-22"></use>
                                        <path stroke="#FFFFFF" stroke-width="1" d="M26.9013878,16 L50.7848192,31.9222876 L48.0637089,34.6433978 L24,18.6009252 L-0.0637089412,34.6433978 L-2.7848192,31.9222876 L21.1253753,15.9821579 L-0.767311045,0.0602042634 L1.94855582,-2.65566261 L24.0124277,13.3907897 L48.0637089,-2.64339784 L50.7848192,0.0777124151 L26.9013878,16 Z"></path>
                                    </g>
                                    <g id="Rectangle-325" mask="url(#mask-21)">
                                        <use fill="#D10D24" fill-rule="evenodd" xlink:href="#path-23"></use>
                                        <path stroke="#FFFFFF" stroke-width="1" d="M26.5,13.5 L48.5,13.5 L48.5,18.5 L26.5,18.5 L26.5,32.5 L21.5,32.5 L21.5,18.5 L-0.5,18.5 L-0.5,13.5 L21.5,13.5 L21.5,-0.5 L26.5,-0.5 L26.5,13.5 Z"></path>
                                    </g>
                                </g>
                            </g>
                        </g>
                    </g>
                </g>
                <path d="M38.82,74.096 C37.145325,74.096 35.7720054,73.5760052 34.7,72.536 C33.6279946,71.4959948 33.092,70.0960088 33.092,68.336 C33.092,66.6293248 33.6066615,65.2320054 34.636,64.144 C35.6653385,63.0559946 37.0386581,62.512 38.756,62.512 C39.5773374,62.512 40.3773294,62.6693318 41.156,62.984 C41.9346706,63.2986682 42.6119971,63.7653302 43.188,64.384 L41.828,65.568 C40.9853291,64.7466626 39.9560061,64.336 38.74,64.336 C37.6946614,64.336 36.8280034,64.7013297 36.14,65.432 C35.4519966,66.1626703 35.108,67.1306606 35.108,68.336 C35.108,69.4880058 35.4466633,70.4426629 36.124,71.2 C36.8013367,71.9573371 37.6999944,72.336 38.82,72.336 C39.7586714,72.336 40.6013296,72.0853358 41.348,71.584 L41.348,69.664 L38.564,69.664 L38.564,67.936 L43.268,67.936 L43.268,72.672 C42.7453307,73.1093355 42.0893373,73.4559987 41.3,73.712 C40.5106627,73.9680013 39.6840043,74.096 38.82,74.096 Z M51.716,68 C52.3986701,68.1706675 52.9453313,68.5039975 53.356,69 C53.7666687,69.4960025 53.972,70.1226629 53.972,70.88 C53.972,71.8186714 53.6546698,72.5733305 53.02,73.144 C52.3853302,73.7146695 51.4600061,74 50.244,74 L45.748,74 L45.748,62.64 L49.7,62.64 C50.8840059,62.64 51.7959968,62.8719977 52.436,63.336 C53.0760032,63.8000023 53.396,64.4906621 53.396,65.408 C53.396,65.9733362 53.2546681,66.4879977 52.972,66.952 C52.6893319,67.4160023 52.2706694,67.7599989 51.716,67.984 L51.716,68 Z M47.684,64.368 L47.684,67.344 L49.524,67.344 C50.057336,67.344 50.5079982,67.2186679 50.876,66.968 C51.2440018,66.7173321 51.428,66.3413358 51.428,65.84 C51.428,64.847995 50.7293403,64.3573333 49.332,64.368 L47.684,64.368 Z M49.668,72.272 C50.3720035,72.2613333 50.9293313,72.122668 51.34,71.856 C51.7506687,71.589332 51.956,71.1946693 51.956,70.672 C51.956,70.1599974 51.7613353,69.7546682 51.372,69.456 C50.9826647,69.1573318 50.425337,69.008 49.7,69.008 L47.684,69.008 L47.684,72.272 L49.668,72.272 Z M56.116,74 L56.116,62.64 L60.228,62.64 C61.5293398,62.64 62.5026634,62.97333 63.148,63.64 C63.7933366,64.30667 64.116,65.1999944 64.116,66.32 C64.116,67.5146726 63.7480037,68.4186636 63.012,69.032 C62.2759963,69.6453364 61.2733397,69.952 60.004,69.952 L58.052,69.952 L58.052,74 L56.116,74 Z M58.052,68.208 L59.812,68.208 C60.5800038,68.208 61.1559981,68.0346684 61.54,67.688 C61.9240019,67.3413316 62.116,66.8746696 62.116,66.288 C62.116,65.679997 61.9293352,65.2080017 61.556,64.872 C61.1826648,64.5359983 60.6493368,64.368 59.956,64.368 L58.052,64.368 L58.052,68.208 Z" id="GBP" fill="#FFFFFF"></path>
            </g>
        </g>
    </g>
</svg>