<?xml version="1.0" encoding="iso-8859-1"?>
<!-- Generator: Adobe Illustrator 19.0.0, SVG Export Plug-In . SVG Version: 6.00 Build 0)  -->
<svg xmlns="http://www.w3.org/2000/svg" xmlns:xlink="http://www.w3.org/1999/xlink" version="1.1" id="Layer_1" x="0px" y="0px" viewBox="0 0 512 512" style="enable-background:new 0 0 512 512;" xml:space="preserve" width="512px" height="512px">
<g>
	<g>
		<path d="M362.667,0c-82.481,0-149.333,66.853-149.333,149.333c0,33.545,11.059,64.505,29.729,89.434L42.667,439.163v-76.497    c0-11.782-9.551-21.333-21.333-21.333C9.551,341.333,0,350.885,0,362.667v128c0,2.101,0.316,4.126,0.882,6.043    c0.003,0.008,0.004,0.017,0.007,0.025c0.187,0.63,0.405,1.245,0.647,1.849c0.016,0.039,0.027,0.079,0.043,0.119    c0.245,0.601,0.519,1.186,0.816,1.758c0.023,0.045,0.042,0.092,0.066,0.137c2.009,3.809,5.132,6.933,8.941,8.941    c0.045,0.024,0.092,0.043,0.137,0.066c0.572,0.297,1.157,0.571,1.758,0.816c0.039,0.016,0.079,0.028,0.118,0.043    c0.604,0.242,1.219,0.46,1.849,0.647c0.008,0.002,0.016,0.004,0.024,0.006c1.918,0.566,3.943,0.882,6.044,0.882h128    c11.782,0,21.333-9.551,21.333-21.333s-9.551-21.333-21.333-21.333H72.837l200.396-200.396    c24.929,18.67,55.889,29.729,89.434,29.729c82.481,0,149.333-66.853,149.333-149.333S445.147,0,362.667,0z M362.667,256    c-29.432,0-56.078-11.917-75.376-31.189c-0.017-0.017-0.031-0.036-0.048-0.053s-0.036-0.031-0.053-0.048    C267.917,205.411,256,178.766,256,149.333c0-58.917,47.75-106.667,106.667-106.667c58.917,0,106.667,47.75,106.667,106.667    C469.333,208.25,421.583,256,362.667,256z" fill="#FFFFFF"/>
	</g>
</g>
<g>
</g>
<g>
</g>
<g>
</g>
<g>
</g>
<g>
</g>
<g>
</g>
<g>
</g>
<g>
</g>
<g>
</g>
<g>
</g>
<g>
</g>
<g>
</g>
<g>
</g>
<g>
</g>
<g>
</g>
</svg>
