<?xml version="1.0" encoding="iso-8859-1"?>
<!-- Generator: Adobe Illustrator 19.0.0, SVG Export Plug-In . SVG Version: 6.00 Build 0)  -->
<svg xmlns="http://www.w3.org/2000/svg" xmlns:xlink="http://www.w3.org/1999/xlink" version="1.1" id="Layer_1" x="0px" y="0px" viewBox="0 0 512.011 512.011" style="enable-background:new 0 0 512.011 512.011;" xml:space="preserve" width="512px" height="512px">
<g transform="translate(0 -1)">
	<g>
		<path d="M505.762,7.248c-4.223-4.223-9.774-6.295-15.309-6.238H362.667c-11.782,0-21.333,9.551-21.333,21.333    c0,11.782,9.551,21.333,21.333,21.333h76.497L238.768,244.073c-24.929-18.67-55.889-29.729-89.434-29.729    C66.853,214.344,0,281.197,0,363.677s66.853,149.333,149.333,149.333s149.333-66.853,149.333-149.333    c0-33.545-11.059-64.505-29.729-89.434L469.333,73.847v76.497c0,11.782,9.551,21.333,21.333,21.333S512,162.126,512,150.344    V22.558C512.058,17.024,509.985,11.471,505.762,7.248z M149.333,470.344c-58.917,0-106.667-47.75-106.667-106.667    c0-58.917,47.75-106.667,106.667-106.667c29.415,0,56.046,11.903,75.341,31.156c0.029,0.029,0.052,0.061,0.081,0.089    s0.06,0.052,0.089,0.081C244.097,307.632,256,334.262,256,363.677C256,422.594,208.25,470.344,149.333,470.344z" fill="#f3f5f2"/>
	</g>
</g>
<g>
</g>
<g>
</g>
<g>
</g>
<g>
</g>
<g>
</g>
<g>
</g>
<g>
</g>
<g>
</g>
<g>
</g>
<g>
</g>
<g>
</g>
<g>
</g>
<g>
</g>
<g>
</g>
<g>
</g>
</svg>
