<svg width="60" height="20" viewBox="0 0 60 20" xmlns="http://www.w3.org/2000/svg" xmlns:xlink="http://www.w3.org/1999/xlink" xmlns:sketch="http://www.bohemiancoding.com/sketch/ns"><title>Fill 7</title><desc>Created with Sketch.</desc><g id="Homepage" stroke="none" stroke-width="1" fill="none" fill-rule="evenodd" sketch:type="MSPage"><g id="Desktop-HD-1200-&lt;" sketch:type="MSArtboardGroup" transform="translate(-972.000000, -1066.000000)" fill="#00b9ff"><g id="3.-Price" sketch:type="MSLayerGroup" transform="translate(0.000000, 718.000000)"><g id="Text" transform="translate(730.000000, 126.000000)" sketch:type="MSShapeGroup"><g id="Buttons" transform="translate(0.000000, 212.000000)"><g id="Grey-Stroke" transform="translate(136.000000, 0.000000)"><g id="google" transform="translate(82.000000, 0.000000)"><g id="Group" transform="translate(24.000000, 10.000000)"><path d="M57.5609302 4.99V6.19627907H57.4132558V4.99H57.0153488V4.86465116H57.9597674V4.99H57.5609302zM12.9025581 13.4732558 10.265814 14.0823256C9.19627907 14.247907 8.23674419 14.3955814 7.22325581 14.3955814 2.13418605 14.3955814.198604651 10.6525581.198604651 7.72069767.198604651 4.14325581 2.94534884.824651163 7.64790698.824651163 8.64325581.824651163 9.60186047.971860465 10.4686047 1.21186047 11.8513953 1.59953488 12.4969767 2.07837209 12.9025581 2.35488372L11.3718605 3.81209302 10.7269767 3.95860465 11.1876744 3.22139535C10.5611628 2.61302326 9.4172093 1.48860465 7.24186047 1.48860465 4.32813953 1.48860465 2.13418605 3.70139535 2.13418605 6.92790698 2.13418605 10.394186 4.64162791 13.6574419 8.66139535 13.6574419 9.84209302 13.6574419 10.4504651 13.4181395 11.0030233 13.1965116V10.2281395L8.21906977 10.375814 9.69395349 9.58302326H13.6032558L13.1239535 10.0439535C12.9946512 10.1546512 12.9767442 10.1916279 12.9393023 10.3388372 12.9202326 10.5048837 12.9025581 11.04 12.9025581 11.2234884V13.4732558zM59.204186 6.19604651V4.97883721H59.1988372L58.8262791 6.19604651H58.7123256L58.3376744 4.97883721H58.3316279V6.19604651H58.2V4.86465116H58.4274419L58.7662791 5.94046512H58.7709302L59.1046512 4.86465116H59.3365116V6.19604651H59.204186zM46.9830233 12.4295349C46.9830233 13.1965116 47.1206977 13.314186 47.7697674 13.3730233 48.1046512 13.4123256 48.4388372 13.4318605 48.7727907 13.4723256L48.0446512 13.904186H44.5790698C45.0309302 13.314186 45.1095349 13.2553488 45.1095349 12.862093V12.4246512L45.1048837.726511628H43.5711628L45.0462791.0186046512H47.8583721C47.2493023.373255814 47.0662791.586976744 46.9876744 1.27534884L46.9830233 12.4295349zM56.6532558 12.5830233 55.7113953 13.4723256C55.4951163 13.5897674 55.277907 13.7276744 55.0623256 13.8262791 54.4127907 14.1204651 53.7437209 14.1990698 53.1546512 14.1990698 52.5248837 14.1990698 51.5411628 14.1597674 50.5383721 13.4318605 49.1416279 12.4486047 48.5325581 10.7572093 48.5325581 9.28255814 48.5325581 6.23395349 51.0106977 4.73883721 53.0360465 4.73883721 53.7437209 4.73883721 54.4723256 4.91627907 55.0623256 5.29023256 56.0460465 5.93813953 56.3009302 6.78395349 56.4381395 7.23697674L51.8162791 9.10511628 50.302093 9.22348837C50.7944186 11.7206977 52.4853488 13.1769767 54.3537209 13.1769767 55.287907 13.1769767 55.9825581 12.8697674 56.614186 12.5586047 56.614186 12.5586047 56.744186 12.4916279 56.6532558 12.5830233zM53.8625581 7.61069767C54.2355814 7.47232558 54.4323256 7.35511628 54.4323256 7.07953488 54.4323256 6.29302326 53.5474419 5.38813953 52.4853488 5.38813953 51.6988372 5.38813953 50.2234884 5.99813953 50.2234884 8.12209302 50.2234884 8.45627907 50.2625581 8.81046512 50.2825581 9.16488372L53.8625581 7.61069767zM18.9518605 14.1597674C15.8246512 14.1597674 14.1527907 11.7211628 14.1527907 9.51813953 14.1527907 6.94209302 16.2574419 4.73906977 19.2467442 4.73906977 22.1374419 4.73906977 23.9472093 7.00046512 23.9472093 9.38069767 23.9472093 11.7006977 22.1583721 14.1597674 18.9518605 14.1597674zM21.41 12.5667442C21.8825581 11.9381395 22.0002326 11.1509302 22.0002326 10.3832558 22.0002326 8.65232558 21.174186 5.34883721 18.7351163 5.34883721 18.085814 5.34883721 17.4374419 5.60488372 16.9653488 6.01767442 16.1983721 6.70604651 16.0604651 7.57209302 16.0604651 8.41744186 16.0604651 10.3639535 17.0244186 13.5697674 19.404186 13.5697674 20.1711628 13.5697674 20.9583721 13.1965116 21.41 12.5667442zM29.4155814 14.1597674C26.2883721 14.1597674 24.6165116 11.7211628 24.6165116 9.51813953 24.6165116 6.94209302 26.7211628 4.73906977 29.71 4.73906977 32.6011628 4.73906977 34.4109302 7.00046512 34.4109302 9.38069767 34.4109302 11.7006977 32.6213953 14.1597674 29.4155814 14.1597674zM31.874186 12.5667442C32.3455814 11.9381395 32.464186 11.1509302 32.464186 10.3832558 32.464186 8.65232558 31.6374419 5.34883721 29.1983721 5.34883721 28.5495349 5.34883721 27.9004651 5.60488372 27.4283721 6.01767442 26.662093 6.70604651 26.524186 7.57209302 26.524186 8.41744186 26.524186 10.3639535 27.4876744 13.5697674 29.8674419 13.5697674 30.634186 13.5697674 31.4211628 13.1965116 31.874186 12.5667442zM41.6097674 5.7027907C42.0611628 6.07651163 43.0055814 6.86255814 43.0055814 8.35813953 43.0055814 9.81372093 42.1797674 10.502093 41.3539535 11.1504651 41.097907 11.4065116 40.8030233 11.6816279 40.8030233 12.1146512 40.8030233 12.5472093 41.097907 12.7837209 41.3139535 12.96L42.022093 13.5109302C42.887907 14.2381395 43.6746512 14.9074419 43.6746512 16.2644186 43.6746512 18.1134884 41.8844186 19.9813953 38.5016279 19.9813953 35.6495349 19.9813953 34.2732558 18.6244186 34.2732558 17.1688372 34.2732558 16.4606977 34.6272093 15.4583721 35.7881395 14.7693023 37.0067442 14.0223256 38.6595349 13.9244186 39.5439535 13.8648837 39.2686047 13.5109302 38.9539535 13.1365116 38.9539535 12.5276744 38.9539535 12.1932558 39.0530233 11.9969767 39.1506977 11.7604651 38.9339535 11.78 38.7181395 11.7997674 38.5211628 11.7997674 36.4367442 11.7997674 35.2562791 10.2462791 35.2562791 8.71232558 35.2562791 7.80744186 35.67 6.80372093 36.5153488 6.07651163 37.6362791 5.15209302 38.9739535 4.99488372 40.0353488 4.99488372h4.0516279L42.8283721 5.7027907H41.6097674zM40.2130233 14.4353488C40.0548837 14.4155814 39.9569767 14.4155814 39.7611628 14.4155814 39.5834884 14.4155814 38.5211628 14.4548837 37.6953488 14.73 37.2627907 14.8876744 36.004186 15.3593023 36.004186 16.7560465 36.004186 18.1527907 37.3604651 19.1551163 39.465814 19.1551163 41.3539535 19.1551163 42.3560465 18.2506977 42.3560465 17.0316279 42.3560465 16.0281395 41.707907 15.4976744 40.2130233 14.4353488zM40.7834884 10.6988372C41.2362791 10.2462791 41.2748837 9.61651163 41.2748837 9.26232558 41.2748837 7.84651163 40.4288372 5.64372093 38.7967442 5.64372093 38.285814 5.64372093 37.7348837 5.89930233 37.4195349 6.2927907 37.085814 6.70627907 36.9872093 7.23697674 36.9872093 7.74790698 36.9872093 9.06534884 37.7539535 11.2495349 39.445814 11.2495349 39.9372093 11.2495349 40.467907 11.0130233 40.7834884 10.6988372z" id="Fill-7"/></g></g></g></g></g></g></g></g></svg>