<?xml version="1.0" encoding="UTF-8"?>
<svg width="2000px" height="800px" viewBox="0 0 2000 800" version="1.1" xmlns="http://www.w3.org/2000/svg" xmlns:xlink="http://www.w3.org/1999/xlink">
    <!-- Generator: Sketch 41.2 (35397) - http://www.bohemiancoding.com/sketch -->
    <title>img_bg_pricing 2</title>
    <desc>Created with Sketch.</desc>
    <defs></defs>
    <g id="Design-v2-Bootstrap-post-user-testing" stroke="none" stroke-width="1" fill="none" fill-rule="evenodd">
        <g id="img_bg_pricing-2" fill="#405F96">
            <g id="//-Jumbotron-Copy" transform="translate(172.000000, -3068.000000)">
                <g id="Header-1">
                    <g id="2x" transform="translate(0.000000, 3323.000000)">
                        <path d="M549.495754,274.557948 C549.495754,426.19248 426.487305,549.115895 274.747877,549.115895 C123.009477,549.115895 0,426.19248 0,274.557948 C0,122.924442 123.009477,0 274.747877,0 C426.487305,0 549.495754,122.924442 549.495754,274.557948" id="Fill-1"></path>
                    </g>
                    <g id="2x" transform="translate(2009.000000, 1578.000000) scale(-1, -1) translate(-2009.000000, -1578.000000) translate(1144.000000, 0.000000)">
                        <polygon id="Fill-6" points="1342.90412 0.571015211 1398.14172 0.571015211 54.4246815 3155.89636 0.27803113 3155.89636"></polygon>
                        <polygon id="Fill-8" points="1453.35214 0.571015211 1508.58974 0.571015211 164.872708 3155.89636 110.726058 3155.89636"></polygon>
                        <polygon id="Fill-10" points="1563.82435 0.571015211 1619.06195 0.571015211 275.344912 3155.89636 221.198261 3155.89636"></polygon>
                        <polygon id="Fill-12" points="1674.27238 0.571015211 1729.50912 0.571015211 385.792938 3155.89636 331.646288 3155.89636"></polygon>
                    </g>
                </g>
            </g>
        </g>
    </g>
</svg>