<svg width="23" height="18" viewBox="0 0 23 18" xmlns="http://www.w3.org/2000/svg" xmlns:xlink="http://www.w3.org/1999/xlink" xmlns:sketch="http://www.bohemiancoding.com/sketch/ns"><title>Fill 2</title><desc>Created with Sketch.</desc><g id="Homepage" stroke="none" stroke-width="1" fill="none" fill-rule="evenodd" sketch:type="MSPage"><g id="Desktop-HD-1200-&lt;" sketch:type="MSArtboardGroup" transform="translate(-890.000000, -1065.000000)" fill="#00b9ff"><g id="3.-Price" sketch:type="MSLayerGroup" transform="translate(0.000000, 718.000000)"><g id="Text" transform="translate(730.000000, 126.000000)" sketch:type="MSShapeGroup"><g id="Buttons" transform="translate(0.000000, 212.000000)"><g id="Grey-Stroke" transform="translate(136.000000, 0.000000)"><g id="xe"><g id="Fill-1-+-Fill-2-+-Fill-3" transform="translate(24.000000, 9.000000)"><path d="M18.5605714 8.40442417C18.4106582 7.08129246 17.6635906 5.84428914 16.5742213 5.08161605 15.5535622 4.35264537 14.2418216 4.0568131 13.0062868 4.26526875 11.8157261 4.45749732 10.7151132 5.12031141 9.9855356 6.07770955 9.30967687 6.95147577 8.95363299 8.06240711 9.00485334 9.16584902 9.02734032 10.5039596 9.67071786 11.8071195 10.6951248 12.6634104 11.8044826 13.6170638 13.3710757 14.0090104 14.798999 13.6919581 15.697229 13.5084672 16.5354937 13.0516122 17.1826191 12.4050252 17.3787555 12.2327685 17.3949961 11.8857585 17.1788713 11.7234876 16.8078361 11.4351447 16.4155632 11.1742631 16.035783 10.8971544 15.8408958 10.7386282 15.5498143 10.7648412 15.3686692 10.932105 14.8514686 11.3465199 14.1718621 11.5624649 13.5109947 11.4738401 12.4028862 11.3652434 11.4521865 10.4278171 11.3247603 9.32187871 13.562215 9.32562342 15.7996697 9.32187871 18.0358751 9.32437518 18.2170203 9.32187871 18.4431394 9.31813399 18.5480786 9.14088427 18.6430236 8.90496739 18.5830584 8.64658224 18.5605714 8.40442417v0zM11.8157261 7.46699784C12.2941991 6.89156037 13.0100347 6.50211028 13.7683457 6.50710323 14.5441465 6.48338672 15.2887155 6.87283681 15.7734349 7.46824608 14.4541986 7.46200489 13.1349623 7.46450136 11.8157261 7.46699784zM.0310286257 5.10659617C.0865370171 4.88328399.31801882 4.79371372.519974882 4.80230265 1.05852438 4.80721061 1.59707388 4.78880576 2.13444235 4.81211857 2.2997865 4.80475663 2.41670843 4.93236359 2.50528565 5.05874356 3.06863677 5.84156318 3.63907407 6.61824785 4.20360622 7.40106747 4.78703484 6.59002708 5.38109273 5.78512164 5.97042651 4.97898921 6.09443461 4.78880576 6.36607142 4.75076907 6.54086381 4.88696496 6.91761225 5.15690276 7.29436069 5.42929454 7.66520399 5.70904826 7.86007387 5.83297425 7.89550476 6.13235981 7.75614327 6.31518132 7.04280139 7.31272419 6.29993377 8.28818124 5.59722115 9.29308605 6.47826924 10.5752906 7.42663601 11.8145505 8.32658057 13.0857121 8.5155453 13.3605579 8.31831336 13.8022743 7.97935786 13.7850964 7.40419645 13.8010473 6.82667297 13.8108632 6.25269258 13.7789615 6.06136579 13.7912314 5.95507312 13.6108639 5.85114252 13.475895 5.30550684 12.7163882 4.7492419 11.9654703 4.20951137 11.2022825 3.60364318 11.997372 3.04029206 12.8255903 2.43678593 13.6231338 2.32104503 13.8133172 2.08602014 13.7801885 1.89941746 13.7949124 1.39511782 13.7887774.888456119 13.8169982.385337507 13.7789615.0995283428 13.7777345-.0847122755 13.4145455.0392958329 13.1581046.10779555 13.0145467.210545126 12.8930747.302665435 12.7666947 1.1471016 11.6120972 1.9809085 10.4489106 2.82770673 9.29554003 1.94311556 8.10045177 1.08214497 6.88695866.201096889 5.68818943.0759077507 5.52868073-.0599106538 5.31886544.0310286257 5.10659617zM12.6987938.019746392C14.6762261-.11473111 16.6941845.441189279 18.3235696 1.57944528 20.1186347 2.81135526 21.4381148 4.73006105 21.9446903 6.86008863 22.3666379 8.59148648 22.2641309 10.4501577 21.6478967 12.1215209 20.8707503 14.2707596 19.2401732 16.0874065 17.1983761 17.0863823 15.4116545 17.9832992 13.3233716 18.213832 11.3745459 17.8043961 9.83217259 17.4633996 8.36608356 16.7201712 7.21943506 15.6239394 7.1359991 15.4162197 7.3982264 15.3886038 7.49834956 15.5218806 8.99900492 16.7105657 10.9239917 17.3457317 12.8322914 17.2700881 14.8609772 17.2100535 16.8503289 16.346756 18.2925791 14.9107284 19.6621208 13.5719568 20.546542 11.7360988 20.7241414 9.82219576 20.8993569 8.12201591 20.5298548 6.36900561 19.6811919 4.88975309 18.6477779 3.06350058 16.9015824 1.65869095 14.8979274 1.0667498 13.0432652.50242457 10.9907405.634500689 9.22189813 1.42935878 8.55441044 1.71872555 7.95128763 2.12816152 7.36842785 2.55800925 7.32670986 2.54840371 7.2432739 2.52799195 7.20036398 2.51838641 7.19082844 2.33227916 7.37081173 2.23982587 7.48643013 2.1305629 8.93821586.886646005 10.79407.129009363 12.6987938.019746392z" id="Fill-2"/></g></g></g></g></g></g></g></g></svg>