<svg width="60" height="14" viewBox="0 0 60 14" xmlns="http://www.w3.org/2000/svg" xmlns:xlink="http://www.w3.org/1999/xlink" xmlns:sketch="http://www.bohemiancoding.com/sketch/ns"><title>Fill 5</title><desc>Created with Sketch.</desc><g id="Homepage" stroke="none" stroke-width="1" fill="none" fill-rule="evenodd" sketch:type="MSPage"><g id="Desktop-HD-1200-&lt;" sketch:type="MSArtboardGroup" transform="translate(-1092.000000, -1067.000000)" fill="#00b9ff"><g id="3.-Price" sketch:type="MSLayerGroup" transform="translate(0.000000, 718.000000)"><g id="Text" transform="translate(730.000000, 126.000000)" sketch:type="MSShapeGroup"><g id="Buttons" transform="translate(0.000000, 212.000000)"><g id="Grey-Stroke" transform="translate(136.000000, 0.000000)"><g id="Yahoo" transform="translate(202.000000, 0.000000)"><path d="M39.9462768 20.2252717C40.3738451 21.3006631 40.8028261 22.377737 41.220961 23.4547147L41.2207808 23.4548348C41.88997 23.2801201 42.5559159 23.3276877 43.0478078 23.4517117L43.0463664 23.4512913C41.9451652 21.3951351 39.735015 16.0154354 38.3306306 12.4612613L38.3308108 12.460961C37.8741742 12.6204204 37.5021622 12.6112312 37.0536937 12.460961L37.0535736 12.4603604C35.5786787 16.1613814 33.8793994 20.3385586 32.3512312 23.4535736L32.3511111 23.454955 32.3512312 23.4535736C33.0522523 23.2783183 33.7218018 23.332012 34.1640841 23.4517117L34.1634835 23.4508709C34.5570308 22.456371 35.0058531 21.3282215 35.4541651 20.1946629L35.4429429 20.2303904C36.9445646 20.1875075 38.4462462 20.1816817 39.9479279 20.2303904L39.9462768 20.2252717v0zM39.6442657 19.4649805C38.9565817 17.7313344 38.280099 16.0031599 37.6663063 14.2879279L37.698979 14.3331532C37.3026164 15.476843 36.5426005 17.4352684 35.7422912 19.4650818 37.0064127 19.5081012 38.38027 19.5074632 39.6442657 19.4649805v0zM45.3938899 18.3244361C47.3708846 18.2979222 49.5611381 18.2966685 51.5383254 18.322007 51.532809 20.0311173 51.4853997 21.7416395 51.3948348 23.4535736H51.3971171C52.0224024 23.3039039 52.6314114 23.3102703 53.2261862 23.4535736 53.0806006 19.7965766 53.0667267 16.1342943 53.2261862 12.4651051 52.6048048 12.6139339 51.9946547 12.6098498 51.3948348 12.4651051 51.4833337 14.1684348 51.5315041 15.8731722 51.5380891 17.5793173v0C49.5592581 17.623502 47.3688994 17.6269791 45.3941175 17.579511 45.4007016 15.8733012 45.4488873 14.1684993 45.5374174 12.4651051 44.9375976 12.6098498 44.3273874 12.6139339 43.706006 12.4651051 43.8654655 16.1342943 43.8515916 19.7965766 43.706006 23.4535736 44.3007808 23.3102703 44.9097898 23.3039039 45.5351351 23.4535736H45.5374174C45.4468674 21.7424505 45.3994452 20.032738 45.3938899 18.3244361v0zM24 11C24.7563964 11.1718919 25.0734535 11.1616216 25.8314114 11 26.7873273 12.6940541 28.2547748 15.064024 29.4942342 17.1168769 30.7163363 15.1075676 32.6364565 11.9696697 33.1570571 11 33.7478078 11.1545946 34.3428829 11.1496096 35.0026426 11H35.0031832C34.310991 11.9350751 31.7903904 16.3058859 30.2634234 18.9849249L30.3733333 24.8821021C30.3733333 24.8821021 29.8869069 24.7935736 29.4958559 24.7935736 29.143003 24.7935736 28.6151351 24.8821021 28.6151351 24.8821021L28.725045 18.9849249C27.9067267 17.5705706 25.5011411 13.261982 24 11zM83.2324925 11.1602402C83.6926126 11.2371171 84 11.5187988 84 12.0037838 84 12.1642643 83.9338739 12.3902703 83.8896697 12.5812613 83.5813213 13.9404204 82.3771772 18.7427027 81.8702703 21.9481081L81.8714715 21.9487087C81.6670871 21.8663664 81.4568168 21.7953754 81.1848649 21.8432432H81.1867267C81.6332733 18.6866667 81.9049249 15.3692492 82.1657658 12.0613814 82.1657658 11.4021021 82.6015015 11.1442643 83.0412012 11.1442643 83.1182583 11.1442643 83.2318919 11.1603003 83.2318919 11.1603003L83.2324925 11.1602402zM80.2666667 24.0822222C80.2666667 23.6096096 80.5540541 23.1701502 81.1302102 23.1701502 81.6816216 23.1701502 82.0942943 23.4999399 82.0942943 24.0267267 82.0942943 24.6830631 81.6599399 24.9249249 81.261982 24.9249249 80.7117117 24.9249249 80.2666667 24.6393994 80.2666667 24.0822222zM73.090991 11.6551952C69.2219219 11.6551952 66.2643844 13.8521321 66.2643844 17.9369369 66.2643844 21.3024024 68.2316517 24.2644444 73.1230631 24.2644444 77.2641441 24.2644444 79.9679279 21.9877477 79.9679279 17.9964565 79.9679279 14.2326727 77.4456456 11.6551952 73.090991 11.6551952zM73.0955556 12.3384985C76.001021 12.3384985 78.1410811 14.1035435 78.1410811 17.9964565 78.1410811 22.2281682 75.5523724 23.6005405 73.1001802 23.6005405 70.4801802 23.6005405 68.0935135 22.0630631 68.0935135 17.9129129 68.0935135 13.6112913 70.7389189 12.3384985 73.0955556 12.3384985zM59.6781982 12.3167568C55.793033 12.3167568 53.7547147 14.7801802 53.7547147 17.9735135 53.7547147 21.4688288 55.9799399 23.6005405 59.6724324 23.6005405 63.6645646 23.6005405 65.6142342 21.1981381 65.6142342 18.0101502 65.6142342 14.4557958 63.2858258 12.3167568 59.6781982 12.3167568zM59.5831832 12.9829429C59.616997 12.9822222 59.6511111 12.9829429 59.685045 12.9829429 62.0609009 12.9829429 63.8057057 14.6012012 63.8057057 17.9827027 63.8057057 21.3599399 62.0631832 22.9778979 59.6896096 22.9778979 57.0998799 22.9778979 55.5781381 21.1221021 55.5781381 17.9918318 55.5781381 14.4516517 57.4531532 13.0266066 59.5831832 12.9829429z" id="Fill-5"/></g></g></g></g></g></g></g></svg>